# xmcd CD database file
#
# Track frame offsets:
#	150
#	45377
#	76170
#	230177
#
# Disc length: 3308 seconds
#
# Revision: 0
# Processed by: cddbd v1.5.2PL0 Copyright (c) Steve Scherf et al.
# Submitted via: CDex 1.70beta2
#
DISCID=260cea04
DTITLE=Colette Portelance - La guérison intérieure - CD2
DYEAR=2007
DGENRE=New Age
TTITLE0=Sommes-nous créateurs de nos souffrances ?
TTITLE1=La caverne de souffrance
TTITLE2=Faut-il parler de nos souffrances ?
TTITLE3=Conclusion
EXTD=YEAR: 2007
EXTT0=
EXTT1=
EXTT2=
EXTT3=
PLAYORDER=
